<mxfile host="app.diagrams.net" modified="2020-08-05T22:41:54.886Z" agent="5.0 (Macintosh; Intel Mac OS X 10_14_6) AppleWebKit/537.36 (KHTML, like Gecko) Chrome/84.0.4147.89 Safari/537.36" etag="x4g3Qy21MTT5EzHFolU1" version="13.5.9" type="github">
  <diagram id="SzoMnZ6_yI7p3GYUjSRn" name="Page-1">
    <mxGraphModel dx="1426" dy="794" grid="1" gridSize="10" guides="1" tooltips="1" connect="1" arrows="1" fold="1" page="1" pageScale="1" pageWidth="850" pageHeight="1100" math="0" shadow="0">
      <root>
        <mxCell id="0" />
        <mxCell id="1" parent="0" />
        <mxCell id="0LU1z7C0pqkhZ3nWRdWV-8" style="edgeStyle=orthogonalEdgeStyle;rounded=0;orthogonalLoop=1;jettySize=auto;html=1;exitX=0.25;exitY=0;exitDx=0;exitDy=0;entryX=0.25;entryY=1;entryDx=0;entryDy=0;" edge="1" parent="1" source="0LU1z7C0pqkhZ3nWRdWV-1" target="0LU1z7C0pqkhZ3nWRdWV-2">
          <mxGeometry relative="1" as="geometry" />
        </mxCell>
        <mxCell id="0LU1z7C0pqkhZ3nWRdWV-18" style="edgeStyle=orthogonalEdgeStyle;rounded=0;orthogonalLoop=1;jettySize=auto;html=1;exitX=0.5;exitY=1;exitDx=0;exitDy=0;entryX=0.5;entryY=0;entryDx=0;entryDy=0;" edge="1" parent="1" source="0LU1z7C0pqkhZ3nWRdWV-1" target="0LU1z7C0pqkhZ3nWRdWV-13">
          <mxGeometry relative="1" as="geometry" />
        </mxCell>
        <mxCell id="0LU1z7C0pqkhZ3nWRdWV-1" value="数据访问层" style="rounded=0;whiteSpace=wrap;html=1;" vertex="1" parent="1">
          <mxGeometry x="350" y="380" width="120" height="60" as="geometry" />
        </mxCell>
        <mxCell id="0LU1z7C0pqkhZ3nWRdWV-4" style="edgeStyle=orthogonalEdgeStyle;rounded=0;orthogonalLoop=1;jettySize=auto;html=1;exitX=0.75;exitY=1;exitDx=0;exitDy=0;entryX=0.75;entryY=0;entryDx=0;entryDy=0;" edge="1" parent="1" source="0LU1z7C0pqkhZ3nWRdWV-2" target="0LU1z7C0pqkhZ3nWRdWV-1">
          <mxGeometry relative="1" as="geometry" />
        </mxCell>
        <mxCell id="0LU1z7C0pqkhZ3nWRdWV-10" style="edgeStyle=orthogonalEdgeStyle;rounded=0;orthogonalLoop=1;jettySize=auto;html=1;exitX=0.25;exitY=0;exitDx=0;exitDy=0;entryX=0.25;entryY=1;entryDx=0;entryDy=0;" edge="1" parent="1" source="0LU1z7C0pqkhZ3nWRdWV-2" target="0LU1z7C0pqkhZ3nWRdWV-3">
          <mxGeometry relative="1" as="geometry" />
        </mxCell>
        <mxCell id="0LU1z7C0pqkhZ3nWRdWV-2" value="业务逻辑层" style="rounded=0;whiteSpace=wrap;html=1;" vertex="1" parent="1">
          <mxGeometry x="350" y="200" width="120" height="60" as="geometry" />
        </mxCell>
        <mxCell id="0LU1z7C0pqkhZ3nWRdWV-6" style="edgeStyle=orthogonalEdgeStyle;rounded=0;orthogonalLoop=1;jettySize=auto;html=1;exitX=0.75;exitY=1;exitDx=0;exitDy=0;entryX=0.75;entryY=0;entryDx=0;entryDy=0;" edge="1" parent="1" source="0LU1z7C0pqkhZ3nWRdWV-3" target="0LU1z7C0pqkhZ3nWRdWV-2">
          <mxGeometry relative="1" as="geometry" />
        </mxCell>
        <mxCell id="0LU1z7C0pqkhZ3nWRdWV-3" value="表示层" style="rounded=0;whiteSpace=wrap;html=1;" vertex="1" parent="1">
          <mxGeometry x="350" y="20" width="120" height="60" as="geometry" />
        </mxCell>
        <mxCell id="0LU1z7C0pqkhZ3nWRdWV-5" value="请求原始数据" style="text;html=1;align=center;verticalAlign=middle;resizable=0;points=[];autosize=1;" vertex="1" parent="1">
          <mxGeometry x="460" y="300" width="90" height="20" as="geometry" />
        </mxCell>
        <mxCell id="0LU1z7C0pqkhZ3nWRdWV-7" value="请求数据" style="text;html=1;align=center;verticalAlign=middle;resizable=0;points=[];autosize=1;" vertex="1" parent="1">
          <mxGeometry x="475" y="120" width="60" height="20" as="geometry" />
        </mxCell>
        <mxCell id="0LU1z7C0pqkhZ3nWRdWV-9" value="提交原始数据" style="text;html=1;align=center;verticalAlign=middle;resizable=0;points=[];autosize=1;" vertex="1" parent="1">
          <mxGeometry x="260" y="300" width="90" height="20" as="geometry" />
        </mxCell>
        <mxCell id="0LU1z7C0pqkhZ3nWRdWV-11" value="提交处理后的数据" style="text;html=1;align=center;verticalAlign=middle;resizable=0;points=[];autosize=1;" vertex="1" parent="1">
          <mxGeometry x="230" y="120" width="110" height="20" as="geometry" />
        </mxCell>
        <mxCell id="0LU1z7C0pqkhZ3nWRdWV-14" style="edgeStyle=orthogonalEdgeStyle;rounded=0;orthogonalLoop=1;jettySize=auto;html=1;exitX=0.5;exitY=1;exitDx=0;exitDy=0;" edge="1" parent="1" source="0LU1z7C0pqkhZ3nWRdWV-13">
          <mxGeometry relative="1" as="geometry">
            <mxPoint x="410" y="740" as="targetPoint" />
          </mxGeometry>
        </mxCell>
        <mxCell id="0LU1z7C0pqkhZ3nWRdWV-13" value="Entity Layer" style="rounded=0;whiteSpace=wrap;html=1;" vertex="1" parent="1">
          <mxGeometry x="350" y="560" width="120" height="60" as="geometry" />
        </mxCell>
        <mxCell id="0LU1z7C0pqkhZ3nWRdWV-15" value="Class to Table Map" style="text;html=1;align=center;verticalAlign=middle;resizable=0;points=[];autosize=1;" vertex="1" parent="1">
          <mxGeometry x="425" y="660" width="120" height="20" as="geometry" />
        </mxCell>
        <mxCell id="0LU1z7C0pqkhZ3nWRdWV-19" value="增、删、改、查" style="text;html=1;align=center;verticalAlign=middle;resizable=0;points=[];autosize=1;" vertex="1" parent="1">
          <mxGeometry x="425" y="490" width="100" height="20" as="geometry" />
        </mxCell>
        <mxCell id="0LU1z7C0pqkhZ3nWRdWV-20" value="" style="image;html=1;image=img/lib/clip_art/computers/Database_128x128.png" vertex="1" parent="1">
          <mxGeometry x="370" y="750" width="80" height="80" as="geometry" />
        </mxCell>
      </root>
    </mxGraphModel>
  </diagram>
</mxfile>
